ply
format ascii 1.0
comment quality legend: good=gray needle=red low_aspect=orange cap=purple zero_area=black
element vertex 221
property float x
property float y
property float z
element face 446
property list uchar int vertex_indices
property uchar red
property uchar green
property uchar blue
property uchar alpha
end_header
0.220516 0.705673 -0.0282303
0.220516 -0.411409 -0.0282303
0.187719 -0.411409 -0.0081317
0.187719 0.705673 -0.0081317
0.152181 -0.411409 0.00658813
0.152181 0.705673 0.00658813
0.114777 -0.411409 0.0155684
0.114777 0.705673 0.0155684
0.0764299 -0.411409 0.0185857
0.0764299 0.705673 0.0185857
0.0380824 -0.411409 0.0155684
0.0380824 0.705673 0.0155684
0.000679041 -0.411409 0.00658813
0.000679041 0.705673 0.00658813
-0.0348591 -0.411409 -0.0081317
-0.0348591 0.705673 -0.0081317
-0.0676563 -0.411409 -0.0282303
-0.0676563 0.705673 -0.0282303
-0.096906 -0.411409 -0.0532117
-0.096906 0.705673 -0.0532117
-0.121888 -0.411409 -0.0824626
-0.121888 0.705673 -0.0824626
-0.141987 -0.411409 -0.11526
-0.141987 0.705673 -0.11526
-0.156706 -0.411409 -0.150798
-0.156706 0.705673 -0.150798
-0.165687 -0.411409 -0.188201
-0.165687 0.705673 -0.188201
-0.168704 -0.411409 -0.226548
-0.168704 0.705673 -0.226548
-0.165687 -0.411409 -0.264896
-0.165687 0.705673 -0.264896
-0.156706 -0.411409 -0.302299
-0.156706 0.705673 -0.302299
-0.141987 -0.411409 -0.337837
-0.141987 0.705673 -0.337837
-0.121888 -0.411409 -0.370634
-0.121888 0.705673 -0.370634
-0.096906 -0.411409 -0.399884
-0.096906 0.705673 -0.399884
-0.0676563 -0.411409 -0.424866
-0.0676563 0.705673 -0.424866
-0.0348591 -0.411409 -0.444965
-0.0348591 0.705673 -0.444965
0.000679041 -0.411409 -0.459685
0.000679041 0.705673 -0.459685
0.0380823 -0.411409 -0.468665
0.0380823 0.705673 -0.468665
0.0764298 -0.411409 -0.471682
0.0764298 0.705673 -0.471682
0.114777 -0.411409 -0.468665
0.114777 0.705673 -0.468665
0.15218 -0.411409 -0.459685
0.15218 0.705673 -0.459685
0.187718 -0.411409 -0.444965
0.187718 0.705673 -0.444965
0.220516 -0.411409 -0.424866
0.220516 0.705673 -0.424866
0.249765 -0.411409 -0.399884
0.249765 0.705673 -0.399884
0.274748 -0.411409 -0.370634
0.274748 0.705673 -0.370634
0.294846 -0.411409 -0.337837
0.294846 0.705673 -0.337837
0.309566 -0.411409 -0.302299
0.309566 0.705673 -0.302299
0.318546 -0.411409 -0.264896
0.318546 0.705673 -0.264896
0.321564 -0.411409 -0.226548
0.321564 0.705673 -0.226548
0.318546 -0.411409 -0.188201
0.318546 0.705673 -0.188201
0.309566 -0.411409 -0.150798
0.309566 0.705673 -0.150798
0.294846 -0.411409 -0.11526
0.294846 0.705673 -0.11526
0.274748 -0.411409 -0.0824626
0.274748 0.705673 -0.0824626
0.249766 -0.411409 -0.0532129
0.249766 0.705673 -0.0532129
0.184875 -0.411409 -0.560307
0.23575 -0.411409 -0.539233
0.282704 -0.411409 -0.51046
0.324579 -0.411409 -0.474697
0.360342 -0.411409 -0.432822
0.389115 -0.411409 -0.385869
0.410188 -0.411409 -0.334993
0.423044 -0.411409 -0.281447
0.427365 -0.411409 -0.226548
0.423044 -0.411409 -0.17165
0.410188 -0.411409 -0.118104
0.389116 -0.411409 -0.0672278
0.360342 -0.411409 -0.0202745
0.324579 -0.411409 0.0216007
0.282705 -0.411409 0.0573642
0.235751 -0.411409 0.0861369
0.184875 -0.411409 0.10721
0.131328 -0.411409 0.120066
0.0764299 -0.411409 0.124386
-0.410534 -0.411409 -0.226548
0.0764299 -0.411409 -0.577483
0.131328 -0.411409 -0.573162
0.235751 0.705673 0.0861369
0.282705 0.705673 0.0573642
0.324579 0.705673 0.0216007
0.360342 0.705673 -0.0202734
0.389116 0.705673 -0.0672278
0.410188 0.705673 -0.118104
0.423044 0.705673 -0.17165
0.427365 0.705673 -0.226548
0.423044 0.705673 -0.281447
0.410188 0.705673 -0.334993
0.389115 0.705673 -0.385869
0.360342 0.705673 -0.432822
0.324579 0.705673 -0.474697
0.282704 0.705673 -0.51046
0.23575 0.705673 -0.539233
0.184875 0.705673 -0.560307
0.131328 0.705673 -0.573162
0.0764299 0.705673 -0.577483
-0.410534 0.705673 -0.226548
0.0764299 0.705673 0.124386
0.131328 0.705673 0.120066
0.184875 0.705673 0.10721
-0.410534 -0.411409 -0.577483
-0.167053 -0.411409 0.124386
-0.410534 -0.411409 0.124386
-0.410534 0.705673 -0.577483
-0.410534 -0.0604739 0.488458
-0.167053 -0.0604739 0.488458
-0.167053 0.705673 0.488458
-0.410534 0.705673 0.488458
-0.410534 0.705673 0.124386
-0.167053 0.705673 0.124386
-0.410534 -0.0604739 0.124386
-0.410534 -0.411409 0.488458
-0.167053 -0.411409 0.488458
0.07643 -0.411409 0.488458
0.07643 -0.0604739 0.488458
-0.167053 -0.0604739 0.124386
0.0764299 -0.0604739 0.124386
-0.410534 -0.205097 0.40333
-0.410534 -0.220735 0.407084
-0.410534 -0.236768 0.408345
-0.410534 -0.252801 0.407084
-0.410534 -0.268439 0.40333
-0.410534 -0.283298 0.397176
-0.410534 -0.29701 0.388772
-0.410534 -0.309238 0.378327
-0.410534 -0.319683 0.366099
-0.410534 -0.328086 0.352386
-0.410534 -0.334241 0.337528
-0.410534 -0.337995 0.32189
-0.410534 -0.339257 0.305858
-0.410534 -0.337995 0.289824
-0.410534 -0.334241 0.274186
-0.410534 -0.328086 0.259329
-0.410534 -0.319683 0.245616
-0.410534 -0.309238 0.233387
-0.410534 -0.29701 0.222942
-0.410534 -0.283298 0.214539
-0.410534 -0.268439 0.208384
-0.410534 -0.252801 0.204631
-0.410534 -0.236768 0.203369
-0.410534 -0.220735 0.204631
-0.410534 -0.205097 0.208384
-0.410534 -0.190239 0.214539
-0.410534 -0.176527 0.222942
-0.410534 -0.164298 0.233387
-0.410534 -0.153853 0.245616
-0.410534 -0.14545 0.259329
-0.410534 -0.139296 0.274186
-0.410534 -0.135541 0.289824
-0.410534 -0.13428 0.305858
-0.410534 -0.135541 0.32189
-0.410534 -0.139296 0.337528
-0.410534 -0.14545 0.352386
-0.410534 -0.153853 0.366099
-0.410534 -0.164298 0.378327
-0.410534 -0.176527 0.388772
-0.410534 -0.190239 0.397176
0.07643 -0.190239 0.397176
0.07643 -0.176527 0.388772
0.07643 -0.164298 0.378327
0.07643 -0.153853 0.366099
0.07643 -0.14545 0.352386
0.07643 -0.139296 0.337528
0.07643 -0.135541 0.32189
0.07643 -0.13428 0.305858
0.07643 -0.135541 0.289824
0.07643 -0.139296 0.274186
0.07643 -0.14545 0.259329
0.07643 -0.153853 0.245616
0.07643 -0.164298 0.233387
0.07643 -0.176527 0.222942
0.07643 -0.190239 0.214539
0.07643 -0.205097 0.208384
0.07643 -0.220735 0.204631
0.07643 -0.236768 0.203369
0.07643 -0.252801 0.204631
0.07643 -0.268439 0.208384
0.07643 -0.283298 0.214539
0.07643 -0.29701 0.222942
0.07643 -0.309238 0.233387
0.07643 -0.319683 0.245616
0.07643 -0.328086 0.259329
0.07643 -0.334241 0.274186
0.07643 -0.337995 0.289824
0.07643 -0.339257 0.305858
0.07643 -0.337995 0.32189
0.07643 -0.334241 0.337528
0.07643 -0.328086 0.352386
0.07643 -0.319683 0.366099
0.07643 -0.309238 0.378327
0.07643 -0.29701 0.388772
0.07643 -0.283298 0.397176
0.07643 -0.268439 0.40333
0.07643 -0.252801 0.407084
0.07643 -0.236768 0.408345
0.07643 -0.220735 0.407084
0.07643 -0.205097 0.40333
3 3 0 1 220 52 70 255
3 3 1 2 220 52 70 255
3 5 3 2 220 52 70 255
3 5 2 4 220 52 70 255
3 7 5 4 220 52 70 255
3 7 4 6 220 52 70 255
3 9 7 6 220 52 70 255
3 9 6 8 220 52 70 255
3 11 9 8 220 52 70 255
3 11 8 10 220 52 70 255
3 13 11 10 220 52 70 255
3 13 10 12 220 52 70 255
3 15 13 12 220 52 70 255
3 17 14 16 220 52 70 255
3 19 17 16 220 52 70 255
3 23 21 20 220 52 70 255
3 23 20 22 220 52 70 255
3 25 23 22 220 52 70 255
3 25 22 24 220 52 70 255
3 27 25 24 220 52 70 255
3 27 24 26 220 52 70 255
3 29 27 26 220 52 70 255
3 29 26 28 220 52 70 255
3 31 29 28 220 52 70 255
3 31 28 30 220 52 70 255
3 33 31 30 220 52 70 255
3 33 30 32 220 52 70 255
3 35 33 32 220 52 70 255
3 35 32 34 220 52 70 255
3 37 35 34 220 52 70 255
3 37 34 36 220 52 70 255
3 39 37 36 220 52 70 255
3 39 36 38 220 52 70 255
3 41 39 38 220 52 70 255
3 41 38 40 220 52 70 255
3 43 41 40 220 52 70 255
3 43 40 42 220 52 70 255
3 45 43 42 220 52 70 255
3 45 42 44 220 52 70 255
3 47 45 44 220 52 70 255
3 47 44 46 220 52 70 255
3 49 47 46 220 52 70 255
3 49 46 48 220 52 70 255
3 51 49 48 220 52 70 255
3 51 48 50 220 52 70 255
3 53 51 50 220 52 70 255
3 53 50 52 220 52 70 255
3 55 53 52 220 52 70 255
3 55 52 54 220 52 70 255
3 57 55 54 220 52 70 255
3 57 54 56 220 52 70 255
3 59 57 56 220 52 70 255
3 59 56 58 220 52 70 255
3 61 59 58 220 52 70 255
3 61 58 60 220 52 70 255
3 63 61 60 220 52 70 255
3 63 60 62 220 52 70 255
3 65 63 62 220 52 70 255
3 65 62 64 220 52 70 255
3 67 65 64 220 52 70 255
3 67 64 66 220 52 70 255
3 69 67 66 220 52 70 255
3 69 66 68 220 52 70 255
3 71 69 68 220 52 70 255
3 71 68 70 220 52 70 255
3 73 71 70 220 52 70 255
3 77 75 74 220 52 70 255
3 77 74 76 220 52 70 255
3 79 77 76 220 52 70 255
3 79 76 78 220 52 70 255
3 0 79 78 220 52 70 255
3 0 78 1 220 52 70 255
3 99 28 26 185 190 198 255
3 30 28 99 185 190 198 255
3 99 26 24 185 190 198 255
3 32 30 99 185 190 198 255
3 99 24 22 185 190 198 255
3 34 32 99 185 190 198 255
3 80 52 101 185 190 198 255
3 83 60 58 185 190 198 255
3 90 70 89 185 190 198 255
3 99 22 20 220 52 70 255
3 36 34 99 220 52 70 255
3 20 126 99 185 190 198 255
3 124 38 36 185 190 198 255
3 10 97 98 185 190 198 255
3 97 8 6 185 190 198 255
3 97 6 4 185 190 198 255
3 96 2 95 185 190 198 255
3 89 70 68 185 190 198 255
3 87 66 64 185 190 198 255
3 101 52 50 185 190 198 255
3 101 50 48 185 190 198 255
3 100 48 46 185 190 198 255
3 120 29 31 185 190 198 255
3 27 29 120 185 190 198 255
3 120 31 33 185 190 198 255
3 25 27 120 185 190 198 255
3 120 33 35 185 190 198 255
3 23 25 120 185 190 198 255
3 123 95 102 220 52 70 255
3 55 115 116 185 190 198 255
3 120 35 37 220 52 70 255
3 103 79 0 185 190 198 255
3 113 59 61 185 190 198 255
3 37 39 127 185 190 198 255
3 19 21 120 220 52 70 255
3 118 49 51 185 190 198 255
3 118 51 53 185 190 198 255
3 118 53 55 185 190 198 255
3 111 61 63 185 190 198 255
3 111 63 65 185 190 198 255
3 123 0 3 185 190 198 255
3 123 3 5 185 190 198 255
3 122 123 5 185 190 198 255
3 122 5 7 185 190 198 255
3 122 7 9 185 190 198 255
3 122 9 11 185 190 198 255
3 122 11 13 185 190 198 255
3 13 133 121 185 190 198 255
3 15 17 133 185 190 198 255
3 133 17 19 185 190 198 255
3 88 109 108 220 52 70 255
3 88 108 89 220 52 70 255
3 87 110 109 220 52 70 255
3 87 109 88 220 52 70 255
3 86 111 110 220 52 70 255
3 86 110 87 220 52 70 255
3 85 112 111 220 52 70 255
3 85 111 86 220 52 70 255
3 84 113 112 220 52 70 255
3 84 112 85 220 52 70 255
3 83 113 84 220 52 70 255
3 82 114 83 220 52 70 255
3 81 116 115 220 52 70 255
3 81 115 82 220 52 70 255
3 80 116 81 220 52 70 255
3 101 118 117 220 52 70 255
3 101 117 80 220 52 70 255
3 100 119 118 220 52 70 255
3 100 118 101 220 52 70 255
3 97 122 121 220 52 70 255
3 96 123 122 220 52 70 255
3 96 122 97 220 52 70 255
3 95 123 96 220 52 70 255
3 92 105 104 220 52 70 255
3 92 104 93 220 52 70 255
3 91 106 105 220 52 70 255
3 91 105 92 220 52 70 255
3 90 107 106 220 52 70 255
3 90 106 91 220 52 70 255
3 89 108 107 220 52 70 255
3 89 107 90 220 52 70 255
3 131 128 129 185 190 198 255
3 131 129 130 185 190 198 255
3 124 127 119 185 190 198 255
3 124 119 100 185 190 198 255
3 120 127 124 185 190 198 255
3 120 124 99 185 190 198 255
3 120 99 126 185 190 198 255
3 120 126 134 185 190 198 255
3 120 134 132 185 190 198 255
3 128 135 136 185 190 198 255
3 128 136 129 185 190 198 255
3 129 136 137 185 190 198 255
3 129 137 138 185 190 198 255
3 121 133 139 185 190 198 255
3 129 139 133 185 190 198 255
3 129 133 130 185 190 198 255
3 130 133 132 185 190 198 255
3 130 132 131 185 190 198 255
3 131 132 134 185 190 198 255
3 172 128 131 185 190 198 255
3 135 126 125 185 190 198 255
3 135 125 136 185 190 198 255
3 167 168 134 185 190 198 255
3 134 168 169 185 190 198 255
3 166 167 134 185 190 198 255
3 134 169 170 185 190 198 255
3 165 166 134 220 52 70 255
3 165 134 126 185 190 198 255
3 164 165 126 220 52 70 255
3 163 164 126 220 52 70 255
3 162 163 126 220 52 70 255
3 161 162 126 220 52 70 255
3 160 161 126 220 52 70 255
3 159 160 126 185 190 198 255
3 158 159 126 185 190 198 255
3 157 158 126 185 190 198 255
3 156 157 126 185 190 198 255
3 134 170 171 220 52 70 255
3 134 171 172 220 52 70 255
3 128 172 173 220 52 70 255
3 128 173 174 220 52 70 255
3 128 174 175 220 52 70 255
3 128 175 176 220 52 70 255
3 128 176 177 185 190 198 255
3 128 177 178 185 190 198 255
3 128 178 179 185 190 198 255
3 128 179 180 185 190 198 255
3 128 180 141 220 52 70 255
3 135 128 141 185 190 198 255
3 135 141 142 220 52 70 255
3 135 142 143 220 52 70 255
3 135 143 144 220 52 70 255
3 135 144 145 220 52 70 255
3 135 145 146 220 52 70 255
3 135 146 147 185 190 198 255
3 135 147 148 185 190 198 255
3 135 148 149 185 190 198 255
3 135 149 150 185 190 198 255
3 135 150 151 220 52 70 255
3 155 156 126 220 52 70 255
3 155 126 135 185 190 198 255
3 154 155 135 220 52 70 255
3 153 154 135 220 52 70 255
3 152 153 135 220 52 70 255
3 135 151 152 220 52 70 255
3 136 125 98 185 190 198 255
3 136 98 137 185 190 198 255
3 202 203 98 185 190 198 255
3 98 203 204 185 190 198 255
3 201 202 98 185 190 198 255
3 98 204 205 185 190 198 255
3 200 201 98 220 52 70 255
3 200 98 140 185 190 198 255
3 199 200 140 220 52 70 255
3 198 199 140 220 52 70 255
3 197 198 140 220 52 70 255
3 196 197 140 220 52 70 255
3 195 196 140 220 52 70 255
3 194 195 140 185 190 198 255
3 193 194 140 185 190 198 255
3 192 193 140 185 190 198 255
3 191 192 140 185 190 198 255
3 98 205 206 220 52 70 255
3 137 98 206 185 190 198 255
3 137 206 207 220 52 70 255
3 137 207 208 220 52 70 255
3 137 208 209 220 52 70 255
3 137 209 210 220 52 70 255
3 137 210 211 220 52 70 255
3 137 211 212 185 190 198 255
3 137 212 213 185 190 198 255
3 137 213 214 185 190 198 255
3 137 214 215 185 190 198 255
3 137 215 216 220 52 70 255
3 138 137 216 185 190 198 255
3 138 216 217 220 52 70 255
3 138 217 218 220 52 70 255
3 138 218 219 220 52 70 255
3 138 219 220 220 52 70 255
3 138 220 181 220 52 70 255
3 138 181 182 185 190 198 255
3 138 182 183 185 190 198 255
3 138 183 184 185 190 198 255
3 138 184 185 185 190 198 255
3 138 185 186 220 52 70 255
3 190 191 140 220 52 70 255
3 190 140 138 185 190 198 255
3 189 190 138 220 52 70 255
3 188 189 138 220 52 70 255
3 187 188 138 220 52 70 255
3 138 186 187 220 52 70 255
3 138 140 139 185 190 198 255
3 138 139 129 185 190 198 255
3 184 183 178 220 52 70 255
3 184 178 177 220 52 70 255
3 183 182 179 220 52 70 255
3 183 179 178 220 52 70 255
3 182 181 180 220 52 70 255
3 182 180 179 220 52 70 255
3 181 220 141 220 52 70 255
3 181 141 180 220 52 70 255
3 220 219 142 220 52 70 255
3 220 142 141 220 52 70 255
3 219 218 143 220 52 70 255
3 219 143 142 220 52 70 255
3 218 217 144 220 52 70 255
3 218 144 143 220 52 70 255
3 217 216 145 220 52 70 255
3 217 145 144 220 52 70 255
3 216 215 146 220 52 70 255
3 216 146 145 220 52 70 255
3 215 214 147 220 52 70 255
3 215 147 146 220 52 70 255
3 214 213 148 220 52 70 255
3 214 148 147 220 52 70 255
3 213 212 149 220 52 70 255
3 213 149 148 220 52 70 255
3 212 211 150 220 52 70 255
3 212 150 149 220 52 70 255
3 211 210 151 220 52 70 255
3 211 151 150 220 52 70 255
3 210 209 152 220 52 70 255
3 210 152 151 220 52 70 255
3 209 208 153 220 52 70 255
3 209 153 152 220 52 70 255
3 208 207 154 220 52 70 255
3 208 154 153 220 52 70 255
3 207 206 155 220 52 70 255
3 207 155 154 220 52 70 255
3 206 205 156 220 52 70 255
3 206 156 155 220 52 70 255
3 205 204 157 220 52 70 255
3 205 157 156 220 52 70 255
3 204 203 158 220 52 70 255
3 204 158 157 220 52 70 255
3 203 202 159 220 52 70 255
3 203 159 158 220 52 70 255
3 202 201 160 220 52 70 255
3 202 160 159 220 52 70 255
3 201 200 161 220 52 70 255
3 201 161 160 220 52 70 255
3 200 199 162 220 52 70 255
3 200 162 161 220 52 70 255
3 199 198 163 220 52 70 255
3 199 163 162 220 52 70 255
3 198 197 164 220 52 70 255
3 198 164 163 220 52 70 255
3 197 196 165 220 52 70 255
3 197 165 164 220 52 70 255
3 196 195 166 220 52 70 255
3 196 166 165 220 52 70 255
3 195 194 167 220 52 70 255
3 195 167 166 220 52 70 255
3 194 193 168 220 52 70 255
3 194 168 167 220 52 70 255
3 193 192 169 220 52 70 255
3 193 169 168 220 52 70 255
3 192 191 170 220 52 70 255
3 192 170 169 220 52 70 255
3 191 190 171 220 52 70 255
3 191 171 170 220 52 70 255
3 190 189 172 220 52 70 255
3 190 172 171 220 52 70 255
3 189 188 173 220 52 70 255
3 189 173 172 220 52 70 255
3 188 187 174 220 52 70 255
3 188 174 173 220 52 70 255
3 187 186 175 220 52 70 255
3 187 175 174 220 52 70 255
3 186 185 176 220 52 70 255
3 186 176 175 220 52 70 255
3 185 184 177 220 52 70 255
3 185 177 176 220 52 70 255
3 139 140 121 185 190 198 255
3 97 121 140 220 52 70 255
3 115 55 57 185 190 198 255
3 115 57 59 185 190 198 255
3 113 83 114 220 52 70 255
3 59 113 114 185 190 198 255
3 114 82 115 220 52 70 255
3 114 115 59 185 190 198 255
3 117 118 55 185 190 198 255
3 116 80 117 220 52 70 255
3 116 117 55 185 190 198 255
3 132 133 19 185 190 198 255
3 127 41 43 220 52 70 255
3 39 41 127 185 190 198 255
3 105 75 77 185 190 198 255
3 105 77 79 185 190 198 255
3 103 93 104 220 52 70 255
3 79 103 104 185 190 198 255
3 104 105 79 185 190 198 255
3 106 73 75 185 190 198 255
3 65 67 110 185 190 198 255
3 61 111 112 185 190 198 255
3 112 113 61 185 190 198 255
3 110 67 69 185 190 198 255
3 69 71 109 185 190 198 255
3 109 110 69 185 190 198 255
3 108 109 71 185 190 198 255
3 71 73 107 185 190 198 255
3 106 107 73 185 190 198 255
3 75 105 106 185 190 198 255
3 13 15 133 185 190 198 255
3 121 122 13 185 190 198 255
3 102 103 0 185 190 198 255
3 0 123 102 185 190 198 255
3 45 47 119 185 190 198 255
3 49 118 119 185 190 198 255
3 47 49 119 185 190 198 255
3 127 43 45 220 52 70 255
3 45 119 127 185 190 198 255
3 140 98 97 185 190 198 255
3 125 16 14 185 190 198 255
3 14 12 98 185 190 198 255
3 15 12 14 220 52 70 255
3 127 120 37 185 190 198 255
3 110 111 65 185 190 198 255
3 107 108 71 185 190 198 255
3 98 125 14 185 190 198 255
3 131 134 172 185 190 198 255
3 94 93 103 220 52 70 255
3 94 102 95 220 52 70 255
3 95 1 94 185 190 198 255
3 93 1 78 185 190 198 255
3 1 93 94 185 190 198 255
3 1 95 2 185 190 198 255
3 4 96 97 185 190 198 255
3 2 96 4 185 190 198 255
3 78 92 93 185 190 198 255
3 92 78 76 185 190 198 255
3 91 76 74 185 190 198 255
3 74 90 91 185 190 198 255
3 88 68 66 185 190 198 255
3 86 64 62 185 190 198 255
3 85 62 60 185 190 198 255
3 85 60 84 185 190 198 255
3 82 58 56 185 190 198 255
3 81 56 54 185 190 198 255
3 80 54 52 185 190 198 255
3 124 36 99 185 190 198 255
3 10 98 12 185 190 198 255
3 60 83 84 185 190 198 255
3 46 124 100 185 190 198 255
3 44 124 46 220 52 70 255
3 42 124 44 220 52 70 255
3 40 124 42 220 52 70 255
3 38 124 40 185 190 198 255
3 97 10 8 185 190 198 255
3 66 87 88 185 190 198 255
3 48 100 101 185 190 198 255
3 102 94 103 220 52 70 255
3 76 91 92 185 190 198 255
3 72 74 75 220 52 70 255
3 68 88 89 185 190 198 255
3 64 86 87 185 190 198 255
3 62 85 86 185 190 198 255
3 58 82 83 185 190 198 255
3 56 81 82 185 190 198 255
3 54 80 81 185 190 198 255
3 126 16 125 185 190 198 255
3 17 15 14 220 52 70 255
3 120 132 19 185 190 198 255
3 21 19 20 220 52 70 255
3 23 120 21 220 52 70 255
3 16 18 19 220 52 70 255
3 19 18 20 220 52 70 255
3 20 18 126 185 190 198 255
3 16 126 18 185 190 198 255
3 90 74 72 185 190 198 255
3 73 70 72 220 52 70 255
3 72 70 90 185 190 198 255
3 72 75 73 220 52 70 255
